<svg xmlns="http://www.w3.org/2000/svg" viewBox="0 0 380 520">
<defs><linearGradient id="wall" x1="0" y1="0" x2="0" y2="1"><stop stop-color="#fff9e9"/><stop offset="1" stop-color="#f2dfb8"/></linearGradient><filter id="shadow" x="-20%" y="-20%" width="140%" height="140%"><feDropShadow dx="0" dy="14" stdDeviation="14" flood-color="#654522" flood-opacity="0.18"/></filter></defs>
<g filter="url(#shadow)"><g><path d="M35 54h310l-20 72H55z" fill="#a66f43" opacity="0.95"/><path d="M50 10h280c14 0 25 11 25 25v54H25V35c0-14 11-25 25-25z" fill="#efc56d"/><rect x="25" y="72" width="330" height="50" rx="22" fill="#e89273"/><rect x="60" y="78" width="65" height="44" rx="18" fill="#f2cd72"/><rect x="190" y="78" width="65" height="44" rx="18" fill="#f2cd72"/></g><rect x="32" y="106" width="316" height="382" rx="34" fill="url(#wall)" stroke="#b87d49" stroke-width="12"/><rect x="82" y="146" width="216" height="54" rx="27" fill="#34435d"/><text x="190" y="182" text-anchor="middle" font-family="Arial,'Microsoft YaHei'" font-size="28" font-weight="800" fill="#fff">售票厅</text><rect x="74" y="228" width="232" height="128" rx="28" fill="#fffdf5" stroke="#ddb26f" stroke-width="8"/><rect x="96" y="250" width="96" height="76" rx="18" fill="#dff2f5"/><path d="M232 250c26 0 48 22 48 48v28h-96v-28c0-26 22-48 48-48z" fill="#f1bd88"/><path d="M198 342h86" stroke="#8b6b45" stroke-width="10" stroke-linecap="round"/><rect x="66" y="390" width="248" height="72" rx="18" fill="#e0a45a"/><rect x="86" y="406" width="208" height="18" rx="9" fill="#f7d88d" opacity="0.75"/></g></svg>