<svg xmlns="http://www.w3.org/2000/svg" viewBox="0 0 980 780">
<defs>
<linearGradient id="gold" x1="0" y1="0" x2="0" y2="1"><stop stop-color="#f7d891"/><stop offset="0.55" stop-color="#ebb765"/><stop offset="1" stop-color="#d69a4e"/></linearGradient>
<linearGradient id="cream" x1="0" y1="0" x2="1" y2="1"><stop stop-color="#fff8df"/><stop offset="0.58" stop-color="#f6d98e"/><stop offset="1" stop-color="#d99a4b"/></linearGradient>
<linearGradient id="stone" x1="0" y1="0" x2="1" y2="0"><stop stop-color="#fffbe9"/><stop offset="0.18" stop-color="#f4d991"/><stop offset="0.82" stop-color="#e1a657"/><stop offset="1" stop-color="#bb7e42"/></linearGradient>
<linearGradient id="shadow" x1="0" y1="0" x2="0" y2="1"><stop stop-color="#ffffff" stop-opacity="0.45"/><stop offset="1" stop-color="#5b3e25" stop-opacity="0.14"/></linearGradient>
<filter id="drop" x="-20%" y="-20%" width="140%" height="140%"><feDropShadow dx="0" dy="18" stdDeviation="16" flood-color="#6d4f2d" flood-opacity="0.2"/></filter>
<filter id="small" x="-20%" y="-20%" width="140%" height="140%"><feDropShadow dx="0" dy="6" stdDeviation="5" flood-color="#6d4f2d" flood-opacity="0.16"/></filter>
</defs>
<ellipse cx="500" cy="735" rx="390" ry="34" fill="#7d5a34" opacity="0.16"/>
<g filter="url(#drop)">
<path d="M180 144h620c18 0 34 15 34 34v50H146v-50c0-19 15-34 34-34z" fill="url(#gold)"/>
<path d="M118 225h744l-24 74H142z" fill="#c68645" opacity="0.95"/>
<path d="M146 215h688v70H146z" rx="28" fill="url(#gold)"/>
<path d="M170 232h638" stroke="#fff4ce" stroke-width="12" opacity="0.28"/>
<g fill="url(#gold)"><path d="M480 12l72 132H408z"/><path d="M240 55l50 92H190z" opacity="0.94"/><path d="M720 55l50 92H670z" opacity="0.94"/></g>
<g fill="#f8dd96" opacity="0.38"><path d="M488 28l-34 106h22z"/><path d="M246 70l-22 70h17z"/><path d="M725 70l-22 70h17z"/></g>
</g>
<g filter="url(#drop)">
<rect x="286" y="242" width="408" height="120" rx="48" fill="#fff6d7" stroke="#b77a45" stroke-width="16"/>
<circle cx="323" cy="284" r="9" fill="#bf8850"/><circle cx="657" cy="284" r="9" fill="#bf8850"/><circle cx="323" cy="322" r="9" fill="#bf8850"/><circle cx="657" cy="322" r="9" fill="#bf8850"/>
<path d="M328 250h320" stroke="#fff" stroke-width="10" opacity="0.44"/>
</g>
<g filter="url(#drop)">
<g transform="translate(92 245)">
<rect x="20" y="52" width="162" height="384" rx="28" fill="url(#stone)"/>
<path d="M12 18h178c16 0 28 12 28 28v48H-16V46c0-16 13-28 28-28z" fill="url(#gold)"/>
<rect x="36" y="108" width="130" height="102" rx="52" fill="#fff8df" stroke="#be854c" stroke-width="10"/>
<rect x="36" y="240" width="130" height="102" rx="52" fill="#fff8df" stroke="#be854c" stroke-width="10"/>
<rect x="18" y="420" width="166" height="70" rx="18" fill="#c68645"/><rect x="4" y="466" width="194" height="46" rx="18" fill="#a96d3d"/>
<rect x="38" y="80" width="14" height="315" rx="8" fill="#fff" opacity="0.2"/><rect x="156" y="80" width="10" height="315" rx="8" fill="#8a5b33" opacity="0.14"/>
<circle cx="102" cy="375" r="26" fill="#ffdf83" stroke="#bf8546" stroke-width="8"/>
</g>
<g transform="translate(686 245)">
<rect x="20" y="52" width="162" height="384" rx="28" fill="url(#stone)"/>
<path d="M12 18h178c16 0 28 12 28 28v48H-16V46c0-16 13-28 28-28z" fill="url(#gold)"/>
<rect x="36" y="108" width="130" height="102" rx="52" fill="#fff8df" stroke="#be854c" stroke-width="10"/>
<rect x="36" y="240" width="130" height="102" rx="52" fill="#fff8df" stroke="#be854c" stroke-width="10"/>
<rect x="18" y="420" width="166" height="70" rx="18" fill="#c68645"/><rect x="4" y="466" width="194" height="46" rx="18" fill="#a96d3d"/>
<rect x="38" y="80" width="14" height="315" rx="8" fill="#fff" opacity="0.2"/><rect x="156" y="80" width="10" height="315" rx="8" fill="#8a5b33" opacity="0.14"/>
<circle cx="102" cy="375" r="26" fill="#ffdf83" stroke="#bf8546" stroke-width="8"/>
</g>
</g>
<g filter="url(#drop)">
<path d="M302 300c4-144 372-144 376 0v356H302z" fill="#fff9df" opacity="0.95"/>
<path d="M330 314c4-118 316-118 320 0v318H330z" fill="#8a623d" opacity="0.22"/>
<path d="M354 325c4-96 268-96 272 0v300H354z" fill="#dff2ff" opacity="0.82"/>
<path d="M318 632h344" stroke="#fff9df" stroke-width="28" stroke-linecap="round"/><path d="M348 666h284" stroke="#f0d996" stroke-width="20" stroke-linecap="round"/><path d="M386 694h208" stroke="#dbb463" stroke-width="16" stroke-linecap="round"/>
<path d="M336 320c28-112 280-112 308 0" stroke="#ffffff" stroke-width="20" fill="none" opacity="0.68"/>
<path d="M330 314c4-118 316-118 320 0" stroke="#b77a45" stroke-width="14" fill="none" opacity="0.7"/>
</g>
<g filter="url(#small)">
<path d="M220 310c170 54 358 54 540 0" stroke="#8f643c" stroke-width="5" fill="none" opacity="0.48"/>
<g><circle cx="220" cy="310" r="10" fill="#efc76d"/><circle cx="274" cy="323" r="10" fill="#e99b7c"/><circle cx="328" cy="334" r="10" fill="#84b9c8"/><circle cx="382" cy="342" r="10" fill="#efc76d"/><circle cx="436" cy="346" r="10" fill="#e99b7c"/><circle cx="490" cy="348" r="10" fill="#84b9c8"/><circle cx="544" cy="346" r="10" fill="#efc76d"/><circle cx="598" cy="342" r="10" fill="#e99b7c"/><circle cx="652" cy="334" r="10" fill="#84b9c8"/><circle cx="706" cy="323" r="10" fill="#efc76d"/><circle cx="760" cy="310" r="10" fill="#e99b7c"/></g>
</g>
</svg>