<svg xmlns="http://www.w3.org/2000/svg" viewBox="0 0 300 230">
<defs><filter id="s" x="-20%" y="-20%" width="140%" height="140%"><feDropShadow dx="0" dy="8" stdDeviation="7" flood-color="#584127" flood-opacity="0.16"/></filter></defs>
<g filter="url(#s)">
<g transform="translate(24 42)"><circle cx="34" cy="28" r="26" fill="#f0bf8b"/><path d="M12 23c10-30 52-28 62 2c-20-12-42-12-62-2z" fill="#31405b"/><rect x="14" y="54" width="42" height="78" rx="22" fill="#80b6ae"/><rect x="20" y="126" width="11" height="44" rx="6" fill="#30415d"/><rect x="40" y="126" width="11" height="44" rx="6" fill="#30415d"/></g>
<g transform="translate(94 78)"><circle cx="26" cy="22" r="21" fill="#f0bf8b"/><path d="M2 19h48c-4-20-44-22-48 0z" fill="#426a99"/><rect x="10" y="42" width="33" height="55" rx="17" fill="#efc76c"/><rect x="14" y="91" width="9" height="33" rx="5" fill="#30415d"/><rect x="31" y="91" width="9" height="33" rx="5" fill="#30415d"/></g>
<g transform="translate(148 88) scale(.88)"><circle cx="26" cy="22" r="21" fill="#f0bf8b"/><path d="M2 19h48c-4-20-44-22-48 0z" fill="#d87868"/><rect x="10" y="42" width="33" height="55" rx="17" fill="#e79a7a"/><rect x="14" y="91" width="9" height="33" rx="5" fill="#30415d"/><rect x="31" y="91" width="9" height="33" rx="5" fill="#30415d"/></g>
<g transform="translate(194 16)"><path d="M40 34c0 21-20 34-20 34S0 55 0 34C0 14 10 0 20 0s20 14 20 34z" fill="#f0c76c"/><path d="M85 56c0 21-20 34-20 34S45 77 45 56c0-20 10-34 20-34s20 14 20 34z" fill="#8db9cf"/><path d="M20 68c-6 42-26 72-62 96" stroke="#72634a" stroke-width="2" fill="none" opacity="0.5"/><path d="M65 90c-3 34-18 60-46 78" stroke="#72634a" stroke-width="2" fill="none" opacity="0.5"/></g>
</g></svg>